<?xml version="1.0" encoding="UTF-8" standalone="no"?>
<!-- Created with Inkscape (http://www.inkscape.org/) -->

<svg
   width="30.647463mm"
   height="33.220047mm"
   viewBox="0 0 30.647463 33.220047"
   version="1.1"
   id="svg1"
   xml:space="preserve"
   xmlns:inkscape="http://www.inkscape.org/namespaces/inkscape"
   xmlns:sodipodi="http://sodipodi.sourceforge.net/DTD/sodipodi-0.dtd"
   xmlns="http://www.w3.org/2000/svg"
   xmlns:svg="http://www.w3.org/2000/svg"><sodipodi:namedview
     id="namedview1"
     pagecolor="#ffffff"
     bordercolor="#999999"
     borderopacity="1"
     inkscape:showpageshadow="0"
     inkscape:pageopacity="0"
     inkscape:pagecheckerboard="0"
     inkscape:deskcolor="#d1d1d1"
     inkscape:document-units="mm" /><defs
     id="defs1" /><g
     inkscape:label="Layer 1"
     inkscape:groupmode="layer"
     id="layer1"
     transform="translate(-61.273042,-65.797239)"><g
       id="g7"><circle
         style="fill:none;fill-opacity:1;stroke:#000000;stroke-width:1;stroke-linecap:round;stroke-linejoin:bevel;stroke-dasharray:none;stroke-opacity:1;paint-order:markers fill stroke"
         id="path1"
         cx="76.596771"
         cy="83.693558"
         r="14.82373" /><circle
         style="fill:#000000;fill-opacity:1;stroke:#000000;stroke-width:0.999999;stroke-linecap:round;stroke-linejoin:bevel;stroke-dasharray:none;stroke-opacity:1;paint-order:markers fill stroke"
         id="path7"
         cx="76.596771"
         cy="69.129753"
         r="2.8325136" /><g
         id="g6"
         transform="matrix(0.74352736,0,0,0.74352736,19.644976,21.465108)"><g
           style="fill:#000000;stroke-width:3.0967;stroke-dasharray:none"
           id="g1"
           transform="matrix(0.27966029,-0.16146194,0.16146194,0.27966029,60.783067,82.855029)"><path
             id="Location-sign"
             d="m 44.499882,63.999969 c -0.372101,0 -0.7188,-0.207996 -0.891598,-0.546798 L 32.576084,41.77047 8.0476837,42.948273 c -0.4267001,0.0156 -0.8203001,-0.233403 -0.9775004,-0.630902 -0.1571999,-0.3974 -0.0449,-0.851501 0.2803001,-1.128898 L 55.350483,0.2392731 c 0.323201,-0.2754 0.784108,-0.3164 1.149399,-0.1055 0.367199,0.2119 0.560501,0.6319 0.483403,1.0488 l -11.5,61.9999999 c -0.0781,0.420898 -0.416001,0.746101 -0.839901,0.806702 -0.04879,0.0078 -0.0966,0.01069 -0.143502,0.01069 z M 33.173683,39.740273 c 0.375,0 0.7197,0.209899 0.891598,0.546798 L 44.054588,59.918972 54.501781,3.5927713 10.875883,40.80957 33.125881,39.741173 c 0.0156,-9e-4 0.0322,-9e-4 0.0478,-9e-4 z"
             style="stroke-width:3.0967;stroke-dasharray:none" /></g><path
           style="fill:#000000;fill-opacity:1;stroke:#000000;stroke-width:0.293203;stroke-linecap:round;stroke-linejoin:bevel;stroke-dasharray:none;stroke-opacity:1;paint-order:markers fill stroke"
           d="m 289.47763,283.82166 c -0.66207,1.59805 -1.18451,3.27233 -1.79146,4.89977 -7.18387,20.16368 -14.37044,40.3269 -21.4959,60.51135 -0.14726,0.23178 0.14614,0.46723 0.32973,0.24404 7.61393,-4.82606 15.14509,-9.78324 22.79475,-14.55237 0.57203,-0.28072 1.04767,0.29647 1.51712,0.52423 7.31997,4.62732 14.53036,9.4257 21.82902,14.08653 0.42931,-0.0595 -0.0584,-0.63414 -0.068,-0.89926 -7.60944,-21.57504 -15.2357,-43.14448 -22.90387,-64.69868 -0.0257,-0.10232 -0.11326,-0.15353 -0.21136,-0.11561 z"
           id="path6"
           transform="scale(0.26458333)" /></g><g
         id="g5"
         transform="matrix(0.22753239,0,0,0.22753239,73.86661,66.399364)"
         style="fill:#ffffff;fill-opacity:1">&#10;&#10;<path
   d="M 18.5,10.75 V 6.003 c 0,-0.967 -0.699,-1.753 -1.56,-1.753 -0.861,0 -1.56,0.786 -1.56,1.753 V 10.75 H 8.62 V 6.003 C 8.62,5.036 7.92,4.25 7.059,4.25 6.198,4.25 5.5,5.036 5.5,6.003 v 4.747 c -1.379,0 -2.5,1.122 -2.5,2.5 v 2 c 0,1.378 1.121,2.5 2.5,2.5 h 0.45 v 0.89 c 0,0.612 0.498,1.11 1.109,1.11 0.612,0 1.11,-0.498 1.11,-1.11 v -0.89 h 7.66 v 0.89 c 0,0.612 0.498,1.11 1.11,1.11 0.611,0 1.109,-0.498 1.109,-1.11 v -0.89 h 0.45 c 1.379,0 2.5,-1.122 2.5,-2.5 v -2 C 21,11.872 19.879,10.75 18.5,10.75 Z M 16.38,6.003 c 0,-0.408 0.257,-0.753 0.561,-0.753 0.298,0 0.56,0.352 0.56,0.753 v 4.747 h -1.12 V 6.003 Z m -9.88,0 C 6.5,5.602 6.762,5.25 7.06,5.25 c 0.304,0 0.561,0.345 0.561,0.753 V 10.75 H 6.5 Z M 7.17,18.64 c 0,0.115 -0.22,0.145 -0.22,0 v -0.89 h 0.22 z m 9.88,0 c -0.001,0.144 -0.221,0.115 -0.22,0 v -0.89 h 0.22 z M 20,15.25 c 0,0.827 -0.673,1.5 -1.5,1.5 H 17.55 16.33 7.67 6.45 5.5 C 4.673,16.75 4,16.077 4,15.25 v -2 c 0,-0.827 0.673,-1.5 1.5,-1.5 h 0.51 2.1 7.779 2.101 0.51 c 0.827,0 1.5,0.673 1.5,1.5 z"
   id="path1-0"
   style="fill:#ffffff;fill-opacity:1" />&#10;&#10;<path
   d="M 10,12.708 H 6 c -0.276,0 -0.5,0.224 -0.5,0.5 0,0.276 0.224,0.5 0.5,0.5 h 4 c 0.276,0 0.5,-0.224 0.5,-0.5 0,-0.276 -0.224,-0.5 -0.5,-0.5 z"
   id="path2"
   style="fill:#ffffff;fill-opacity:1" />&#10;&#10;<path
   d="M 9.083,14.792 H 6 c -0.276,0 -0.5,0.224 -0.5,0.5 0,0.276 0.224,0.5 0.5,0.5 h 3.083 c 0.276,0 0.5,-0.224 0.5,-0.5 0,-0.276 -0.224,-0.5 -0.5,-0.5 z"
   id="path3"
   style="fill:#ffffff;fill-opacity:1" />&#10;&#10;<path
   d="m 13.514,8.56 c 0.195,-0.195 0.195,-0.512 0,-0.707 -0.796,-0.796 -2.092,-0.795 -2.888,0 -0.195,0.195 -0.195,0.512 0,0.707 0.098,0.098 0.226,0.146 0.354,0.146 0.128,0 0.256,-0.049 0.354,-0.146 0.406,-0.406 1.067,-0.407 1.474,0 0.194,0.195 0.51,0.195 0.706,0 z"
   id="path4"
   style="fill:#ffffff;fill-opacity:1" />&#10;&#10;<path
   d="m 9.963,7.473 c 0.128,0 0.256,-0.049 0.354,-0.146 0.954,-0.953 2.506,-0.953 3.46,0 0.195,0.195 0.512,0.195 0.707,0 0.195,-0.195 0.195,-0.512 0,-0.707 -1.344,-1.344 -3.53,-1.344 -4.874,0 -0.195,0.195 -0.195,0.512 0,0.707 0.097,0.097 0.225,0.146 0.353,0.146 z"
   id="path5"
   style="fill:#ffffff;fill-opacity:1" />&#10;&#10;<circle
   cx="12.07"
   cy="9.3889999"
   r="0.5"
   id="circle5"
   style="fill:#ffffff;fill-opacity:1" />&#10;&#10;</g></g></g></svg>
